# File created by Blade
# Date/Time:  Wed Apr 08 14:55:03 2015
# Frame Rate: 120.000 fps
#------------------------------------------------------
:FULLY-SPECIFIED
:DEGREES
2395
root 1.431562 34.216568 -3.911489 14.470846 -1.181909 0.604167
Spine -9.647863 -2.223000 -0.876878
Head 4.955593 -4.535255 -0.329801
LeftShoulder -23.249819 43.214143 11.921367
LeftArm 47.522389 -37.436844 -54.387737
LeftForeArm 16.659913 -0.000000 20.883245
LeftHand 7.732508 -0.000000 4.605557
LeftHandThumb1 -26.253704 0.000000 33.147579
RightShoulder -6.626692 -6.083588 -25.814091
RightArm 10.691573 -6.559919 54.539076
RightForeArm -5.513165 -0.000000 27.912907
RightHand 11.351050 -0.000000 -6.361378
RightHandThumb1 -24.326973 -0.000000 -32.862282
LeftUpLeg -25.564421 -7.482175 0.893034
LeftLeg 35.610444 -0.000000 -0.000000
LeftFoot -9.402941 8.332998 -21.657833
LeftToeBase -11.663317 -0.000000 0.000000
RightUpLeg -11.943090 -2.951194 2.348140
RightLeg 11.057252 -0.000000 -0.000000
RightFoot 6.275092 -13.701277 6.468020
RightToeBase -27.787861 -0.000000 0.000000
2396
root 1.443731 34.290769 -3.939780 14.453659 -1.133861 0.505888
Spine -9.868545 -2.407031 -0.780739
Head 5.278732 -4.427790 -0.258920
LeftShoulder -23.170358 43.053500 12.289669
LeftArm 47.450273 -38.479953 -54.313417
LeftForeArm 16.223782 -0.000000 19.611556
LeftHand 7.789017 -0.000000 5.448966
LeftHandThumb1 -26.253704 0.000000 33.147579
RightShoulder -6.656275 -5.981073 -25.960416
RightArm 10.793473 -6.203018 53.778975
RightForeArm -5.509093 -0.000000 27.128929
RightHand 11.167332 -0.000000 -6.336173
RightHandThumb1 -24.326973 -0.000000 -32.862282
LeftUpLeg -24.773080 -7.623605 0.934757
LeftLeg 35.252297 -0.000000 -0.000000
LeftFoot -8.978040 8.523442 -21.797546
LeftToeBase -11.460315 -0.000000 0.000000
RightUpLeg -11.601882 -2.878155 2.261894
RightLeg 10.240596 -0.000000 -0.000000
RightFoot 7.488422 -13.147488 6.652572
RightToeBase -29.041693 -0.000000 0.000000
2397
root 1.457453 34.357909 -3.968493 14.447969 -1.077149 0.420734
Spine -10.095273 -2.599286 -0.707735
Head 5.594755 -4.290985 -0.160908
LeftShoulder -23.083459 42.893284 12.734756
LeftArm 47.561936 -39.550980 -54.491463
LeftForeArm 15.857996 0.000000 18.334881
LeftHand 7.958722 0.000000 6.150310
LeftHandThumb1 -26.253704 0.000000 33.147579
RightShoulder -6.683994 -5.854467 -26.112579
RightArm 10.857200 -5.858097 53.036282
RightForeArm -5.545415 -0.000000 26.364208
RightHand 11.096934 -0.000000 -6.379976
RightHandThumb1 -24.326973 -0.000000 -32.862282
LeftUpLeg -23.988513 -7.757975 0.970369
LeftLeg 34.723423 -0.000000 -0.000000
LeftFoot -8.326775 8.845150 -21.691166
LeftToeBase -11.357724 -0.000000 0.000000
RightUpLeg -11.338638 -2.997572 2.168566
RightLeg 9.556417 -0.000000 -0.000000
RightFoot 8.544901 -12.400680 7.038416
RightToeBase -30.497062 -0.000000 0.000000
2398
root 1.469501 34.419800 -3.997283 14.469439 -0.962783 0.310700
Spine -10.350476 -2.837450 -0.598212
Head 5.910230 -4.177133 -0.049687
LeftShoulder -22.994531 42.723954 13.155595
LeftArm 47.679466 -40.615250 -54.641990
LeftForeArm 15.540584 -0.000000 17.167379
LeftHand 7.963875 -0.000000 7.025631
LeftHandThumb1 -26.253704 0.000000 33.147579
RightShoulder -6.732136 -5.629876 -26.257074
RightArm 10.847407 -5.586732 52.275263
RightForeArm -5.642377 -0.000000 25.601145
RightHand 11.227655 -0.000000 -6.438206
RightHandThumb1 -24.326973 -0.000000 -32.862282
LeftUpLeg -23.212324 -7.973258 1.081420
LeftLeg 33.974927 -0.000000 -0.000000
LeftFoot -7.532454 9.391400 -21.689260
LeftToeBase -11.377213 -0.000000 0.000000
RightUpLeg -11.054108 -3.019830 2.075804
RightLeg 8.804692 -0.000000 -0.000000
RightFoot 9.474601 -11.689047 7.590681
RightToeBase -31.279257 -0.000000 0.000000
